HIERARCHY
ROOT Hips
{
	OFFSET 0.000000 83.214638 0.000000
	CHANNELS 6 Xposition Yposition Zposition Xrotation Yrotation Zrotation
	JOINT Pelvis
	{
		OFFSET 0.000000 0.000000 0.000000
		CHANNELS 3 Xrotation Yrotation Zrotation
		JOINT LeftUpLeg
		{
			OFFSET 8.479700 -4.795502 -0.379100
			CHANNELS 3 Xrotation Yrotation Zrotation
			JOINT LeftLeg
			{
				OFFSET 0.024144 -32.555107 0.112900
				CHANNELS 3 Xrotation Yrotation Zrotation
				JOINT LeftFoot
				{
					OFFSET -0.024144 -32.638630 -3.012600
					CHANNELS 3 Xrotation Yrotation Zrotation
					JOINT LeftToeBase
					{
						OFFSET 0.970200 -13.225400 11.864200
						CHANNELS 3 Xrotation Yrotation Zrotation
						End Site
						{
							OFFSET 0.000000 12.319262 0.000000
						}
					}
					JOINT LFootTongue
					{
						OFFSET 1.142400 -1.059800 6.665200
						CHANNELS 3 Xrotation Yrotation Zrotation
						End Site
						{
							OFFSET 0.000000 12.319262 0.000000
						}
					}
				}
				JOINT LeftPantLeg
				{
					OFFSET 0.918482 -16.533964 -2.284700
					CHANNELS 3 Xrotation Yrotation Zrotation
					End Site
					{
						OFFSET 0.350399 24.744368 0.000000
					}
				}
			}
		}
		JOINT RightUpLeg
		{
			OFFSET -8.479700 -4.795502 -0.379100
			CHANNELS 3 Xrotation Yrotation Zrotation
			JOINT RightLeg
			{
				OFFSET -0.023144 -32.555092 0.112900
				CHANNELS 3 Xrotation Yrotation Zrotation
				JOINT RightFoot
				{
					OFFSET 0.023144 -32.638641 -3.012700
					CHANNELS 3 Xrotation Yrotation Zrotation
					JOINT RightToeBase
					{
						OFFSET -0.970200 -13.225400 11.864200
						CHANNELS 3 Xrotation Yrotation Zrotation
						End Site
						{
							OFFSET 0.000000 12.319244 0.000000
						}
					}
					JOINT RFootTongue
					{
						OFFSET -1.142200 -1.059800 6.665200
						CHANNELS 3 Xrotation Yrotation Zrotation
						End Site
						{
							OFFSET 0.000000 12.319243 0.000000
						}
					}
				}
				JOINT RightPantLeg
				{
					OFFSET -0.919482 -16.533978 -2.284800
					CHANNELS 3 Xrotation Yrotation Zrotation
					End Site
					{
						OFFSET -0.350400 24.744419 0.000000
					}
				}
			}
		}
	}
	JOINT Spine
	{
		OFFSET 0.000000 7.722000 1.166200
		CHANNELS 3 Xrotation Yrotation Zrotation
		JOINT Spine1
		{
			OFFSET 0.000000 12.024101 0.248800
			CHANNELS 3 Xrotation Yrotation Zrotation
			JOINT Spine2
			{
				OFFSET 0.000000 11.502998 -0.491200
				CHANNELS 3 Xrotation Yrotation Zrotation
				JOINT Neck
				{
					OFFSET 0.000000 18.430702 -3.123100
					CHANNELS 3 Xrotation Yrotation Zrotation
					JOINT Head
					{
						OFFSET 0.000000 9.051102 1.034000
						CHANNELS 3 Xrotation Yrotation Zrotation
						JOINT HairB
						{
							OFFSET 0.208400 24.786102 24.822300
							CHANNELS 3 Xrotation Yrotation Zrotation
							End Site
							{
								OFFSET 0.000000 32.263779 0.000000
							}
						}
						JOINT HairA
						{
							OFFSET -7.081100 24.428299 23.196600
							CHANNELS 3 Xrotation Yrotation Zrotation
							End Site
							{
								OFFSET 0.000000 32.263779 0.000000
							}
						}
						JOINT Hat
						{
							OFFSET 16.728800 15.048294 -15.439601
							CHANNELS 3 Xrotation Yrotation Zrotation
							End Site
							{
								OFFSET 0.000000 32.263779 0.000000
							}
						}
					}
				}
				JOINT LeftShoulder
				{
					OFFSET 6.197800 13.665199 -4.064700
					CHANNELS 3 Xrotation Yrotation Zrotation
					JOINT LeftArm
					{
						OFFSET 7.778100 -0.187103 -1.709300
						CHANNELS 3 Xrotation Yrotation Zrotation
						JOINT LeftForeArm
						{
							OFFSET 22.049376 0.000000 0.000000
							CHANNELS 3 Xrotation Yrotation Zrotation
							JOINT LeftHand
							{
								OFFSET 23.009392 0.000000 0.000000
								CHANNELS 3 Xrotation Yrotation Zrotation
								JOINT LeftHandThumb1
								{
									OFFSET 3.507191 -2.063065 3.133727
									CHANNELS 3 Xrotation Yrotation Zrotation
									JOINT LeftHandThumb2
									{
										OFFSET 3.101337 -1.790558 1.790558
										CHANNELS 3 Xrotation Yrotation Zrotation
										JOINT LeftHandThumb3
										{
											OFFSET 3.058640 -1.765907 1.765906
											CHANNELS 3 Xrotation Yrotation Zrotation
											End Site
											{
												OFFSET -0.415260 3.926476 -0.049563
											}
										}
									}
								}
								JOINT LeftHandIndex1
								{
									OFFSET 11.334419 -0.901459 3.706815
									CHANNELS 3 Xrotation Yrotation Zrotation
									JOINT LeftHandIndex2
									{
										OFFSET 3.283112 0.000000 0.000000
										CHANNELS 3 Xrotation Yrotation Zrotation
										JOINT LeftHandIndex3
										{
											OFFSET 3.323853 0.000000 0.000000
											CHANNELS 3 Xrotation Yrotation Zrotation
											End Site
											{
												OFFSET -1.135597 3.097809 0.402452
											}
										}
									}
								}
								JOINT LeftHandMiddle1
								{
									OFFSET 11.335861 0.000000 0.000000
									CHANNELS 3 Xrotation Yrotation Zrotation
									JOINT LeftHandMiddle2
									{
										OFFSET 3.410492 0.000000 0.000000
										CHANNELS 3 Xrotation Yrotation Zrotation
										JOINT LeftHandMiddle3
										{
											OFFSET 3.312172 0.000000 0.000000
											CHANNELS 3 Xrotation Yrotation Zrotation
											End Site
											{
												OFFSET -1.150200 3.080154 0.400270
											}
										}
									}
								}
								JOINT LeftHandRing1
								{
									OFFSET 11.514786 -0.013176 -3.003090
									CHANNELS 3 Xrotation Yrotation Zrotation
									JOINT LeftHandRing2
									{
										OFFSET 3.053307 0.000000 0.000000
										CHANNELS 3 Xrotation Yrotation Zrotation
										JOINT LeftHandRing3
										{
											OFFSET 3.295807 0.000000 0.000000
											CHANNELS 3 Xrotation Yrotation Zrotation
											End Site
											{
												OFFSET -1.281006 3.013344 0.375733
											}
										}
									}
								}
								JOINT LeftHandPinky1
								{
									OFFSET 10.518692 -0.960396 -5.730441
									CHANNELS 3 Xrotation Yrotation Zrotation
									JOINT LeftHandPinky2
									{
										OFFSET 2.861649 0.000000 0.000000
										CHANNELS 3 Xrotation Yrotation Zrotation
										JOINT LeftHandPinky3
										{
											OFFSET 2.863380 0.000000 0.000000
											CHANNELS 3 Xrotation Yrotation Zrotation
											End Site
											{
												OFFSET -0.843597 2.711159 0.369971
											}
										}
									}
								}
							}
							JOINT LSleeve
							{
								OFFSET 6.676277 -0.344902 -1.011730
								CHANNELS 3 Xrotation Yrotation Zrotation
								End Site
								{
									OFFSET 0.000000 14.885353 0.000000
								}
							}
						}
					}
				}
				JOINT RightShoulder
				{
					OFFSET -6.197800 13.665199 -4.064700
					CHANNELS 3 Xrotation Yrotation Zrotation
					JOINT RightArm
					{
						OFFSET -7.778100 -0.187103 -1.709300
						CHANNELS 3 Xrotation Yrotation Zrotation
						JOINT RightForeArm
						{
							OFFSET -22.049376 0.000000 0.000000
							CHANNELS 3 Xrotation Yrotation Zrotation
							JOINT RightHand
							{
								OFFSET -23.009392 0.000000 0.000000
								CHANNELS 3 Xrotation Yrotation Zrotation
								JOINT RightHandThumb1
								{
									OFFSET -3.507191 -2.063065 3.133727
									CHANNELS 3 Xrotation Yrotation Zrotation
									JOINT RightHandThumb2
									{
										OFFSET -3.101337 -1.790558 1.790558
										CHANNELS 3 Xrotation Yrotation Zrotation
										JOINT RightHandThumb3
										{
											OFFSET -3.058640 -1.765907 1.765906
											CHANNELS 3 Xrotation Yrotation Zrotation
											End Site
											{
												OFFSET 0.415260 3.926476 -0.049563
											}
										}
									}
								}
								JOINT RightHandIndex1
								{
									OFFSET -11.334419 -0.901459 3.706815
									CHANNELS 3 Xrotation Yrotation Zrotation
									JOINT RightHandIndex2
									{
										OFFSET -3.283112 0.000000 0.000000
										CHANNELS 3 Xrotation Yrotation Zrotation
										JOINT RightHandIndex3
										{
											OFFSET -3.323853 0.000000 0.000000
											CHANNELS 3 Xrotation Yrotation Zrotation
											End Site
											{
												OFFSET 1.135597 3.097809 0.402452
											}
										}
									}
								}
								JOINT RightHandMiddle1
								{
									OFFSET -11.335861 0.000000 0.000000
									CHANNELS 3 Xrotation Yrotation Zrotation
									JOINT RightHandMiddle2
									{
										OFFSET -3.410492 0.000000 0.000000
										CHANNELS 3 Xrotation Yrotation Zrotation
										JOINT RightHandMiddle3
										{
											OFFSET -3.312172 0.000000 0.000000
											CHANNELS 3 Xrotation Yrotation Zrotation
											End Site
											{
												OFFSET 1.150200 3.080154 0.400270
											}
										}
									}
								}
								JOINT RightHandRing1
								{
									OFFSET -11.514786 -0.013176 -3.003090
									CHANNELS 3 Xrotation Yrotation Zrotation
									JOINT RightHandRing2
									{
										OFFSET -3.053307 0.000000 0.000000
										CHANNELS 3 Xrotation Yrotation Zrotation
										JOINT RightHandRing3
										{
											OFFSET -3.295807 0.000000 0.000000
											CHANNELS 3 Xrotation Yrotation Zrotation
											End Site
											{
												OFFSET 1.281006 3.013344 0.375733
											}
										}
									}
								}
								JOINT RightHandPinky1
								{
									OFFSET -10.518692 -0.960396 -5.730441
									CHANNELS 3 Xrotation Yrotation Zrotation
									JOINT RightHandPinky2
									{
										OFFSET -2.861649 0.000000 0.000000
										CHANNELS 3 Xrotation Yrotation Zrotation
										JOINT RightHandPinky3
										{
											OFFSET -2.863380 0.000000 0.000000
											CHANNELS 3 Xrotation Yrotation Zrotation
											End Site
											{
												OFFSET 0.843597 2.711159 0.369971
											}
										}
									}
								}
							}
							JOINT RSleeve
							{
								OFFSET -6.676277 -0.344902 -1.011730
								CHANNELS 3 Xrotation Yrotation Zrotation
								End Site
								{
									OFFSET 0.000000 14.885353 0.000000
								}
							}
						}
					}
				}
				JOINT Backpack
				{
					OFFSET 0.000000 -2.471497 36.677502
					CHANNELS 3 Xrotation Yrotation Zrotation
					End Site
					{
						OFFSET 0.000000 20.427315 0.000000
					}
				}
				JOINT Hood
				{
					OFFSET 0.000000 18.754097 -10.431000
					CHANNELS 3 Xrotation Yrotation Zrotation
					JOINT Hood1
					{
						OFFSET 0.000000 -5.011002 -7.685901
						CHANNELS 3 Xrotation Yrotation Zrotation
						End Site
						{
							OFFSET 0.000000 9.175140 0.000000
						}
					}
				}
				JOINT LHoodieString
				{
					OFFSET 5.250500 16.397697 3.089900
					CHANNELS 3 Xrotation Yrotation Zrotation
					JOINT LHoodieString1
					{
						OFFSET 0.257700 -6.364304 3.694600
						CHANNELS 3 Xrotation Yrotation Zrotation
						JOINT LHoodieString2
						{
							OFFSET 0.000000 -9.643799 2.679100
							CHANNELS 3 Xrotation Yrotation Zrotation
							End Site
							{
								OFFSET 0.000000 10.009018 0.000000
							}
						}
					}
				}
				JOINT RHoodieString
				{
					OFFSET -5.250500 16.397697 3.089900
					CHANNELS 3 Xrotation Yrotation Zrotation
					JOINT RHoodieString1
					{
						OFFSET -0.257700 -6.364304 3.694600
						CHANNELS 3 Xrotation Yrotation Zrotation
						JOINT RHoodieString2
						{
							OFFSET 0.000000 -9.643799 2.679100
							CHANNELS 3 Xrotation Yrotation Zrotation
							End Site
							{
								OFFSET 0.000000 10.009018 0.000000
							}
						}
					}
				}
			}
			JOINT LBackpack_Strap
			{
				OFFSET 15.223200 -7.719803 -6.610900
				CHANNELS 3 Xrotation Yrotation Zrotation
				End Site
				{
					OFFSET 0.000000 16.040596 0.000000
				}
			}
			JOINT RBackpack_Strap
			{
				OFFSET -15.223000 -7.719803 -6.610900
				CHANNELS 3 Xrotation Yrotation Zrotation
				End Site
				{
					OFFSET 0.000000 16.040596 0.000000
				}
			}
		}
	}
	JOINT BoyFacialAnim_Joint
	{
		OFFSET 1.000000 -82.208099 -1.550900
		CHANNELS 3 Xrotation Yrotation Zrotation
		End Site
		{
			OFFSET 0.000000 30.012791 0.000000
		}
	}
}
MOTION
Frames: 4
Frame Time: 0.016667
8.383664 67.985992 -4.030879 43.918888 -82.077420 44.534483 -0.000000 0.000000 -0.000000 -29.699531 -10.486040 23.472877 51.633754 -7.211660 10.030353 -27.109140 -1.519388 -21.452764 -0.000000 -0.000000 -0.000001 -0.000000 -0.000000 -0.000000 0.000000 -0.000001 -0.000001 -21.195843 7.171439 -26.157316 48.760543 4.538066 -9.838532 -35.129794 2.699857 23.865844 -0.000000 -0.000000 0.000000 -0.000000 -0.000000 0.000000 -0.000002 -0.000002 0.000000 1.320152 4.417736 3.210591 1.685962 3.692189 0.960058 1.613183 3.756747 0.980634 -3.532982 9.176825 -1.132674 -3.451490 43.959774 -1.786092 -0.000000 0.000003 -0.000000 -0.000000 0.000003 -0.000000 -0.000000 0.000003 -0.000000 0.705583 8.677182 -8.120511 -7.703513 12.546982 -67.827781 -0.000017 -117.532502 -0.000028 -2.759493 -37.106177 22.103103 -9.674871 0.269250 1.575512 21.035335 31.264706 -3.204863 -0.000001 -0.000001 0.000002 -2.849066 3.303466 -72.216348 3.992252 5.548939 -71.446695 0.000001 -0.000001 -0.000004 -2.178472 6.191030 -74.467824 5.106544 5.803669 -82.676933 -0.000001 0.000001 0.000000 -2.999850 7.957889 -88.252895 5.714706 5.849485 -88.662371 -0.000002 0.000001 -0.000004 0.216268 8.542507 -93.244301 6.059381 5.847390 -92.043793 -0.000004 -0.000001 0.000001 0.000001 -0.000000 -0.000001 0.563286 13.344019 9.556959 -10.871302 35.898641 46.529431 -0.000009 101.265143 -0.000014 18.782679 12.790215 -36.872421 -6.752284 7.209117 -18.581256 21.136591 -37.182505 16.258977 -0.000001 -0.000004 0.000001 -3.537841 10.196848 38.911465 4.634951 -4.657134 89.726180 -0.000001 -0.000002 0.000008 -5.052439 -1.676054 58.106366 3.618998 -4.540235 77.105760 -0.000002 0.000000 0.000003 -3.873861 -2.931546 61.582673 4.483689 -4.653949 87.863041 -0.000000 -0.000003 0.000002 -1.856270 -4.598463 67.393934 2.939846 -4.329619 68.339745 0.000002 0.000001 0.000002 -0.000001 0.000001 -0.000003 0.000000 0.000001 0.000000 0.000000 0.000001 0.000000 0.000000 0.000001 0.000000 0.000000 0.000001 0.000000 0.000000 0.000001 -0.000000 0.000000 -0.000000 0.000001 0.000000 0.000001 0.000000 0.000000 0.000001 -0.000000 0.000000 -0.000000 0.000001 0.000000 -0.000000 0.000000 0.000000 -0.000000 0.000000 -0.000000 0.000000 -0.000000 
8.112864 68.284927 -3.964541 34.176129 -81.460005 34.629780 -0.000000 -0.000000 -0.000000 -28.983696 -10.245087 23.560051 50.440520 -7.209675 10.027622 -27.286785 -2.708068 -21.303449 0.000000 0.000000 -0.000001 0.000000 0.000000 -0.000001 -0.000001 0.000000 0.000001 -19.995440 6.450021 -26.125224 48.570759 4.648489 -9.894397 -33.286118 2.580647 24.421406 0.000000 -0.000000 0.000001 0.000000 -0.000000 0.000001 -0.000001 0.000001 0.000001 1.315695 4.233167 3.439259 1.674577 3.524486 1.048239 1.609792 3.584471 1.064618 -2.945500 8.978259 -1.211498 -3.441615 42.960421 -1.394685 -0.000000 -0.000001 0.000000 -0.000000 -0.000001 0.000000 -0.000000 -0.000001 0.000000 0.654794 7.533270 -7.402832 -5.403852 12.550882 -68.677764 -0.000042 -118.249726 -0.000020 -3.995456 -36.802398 21.789514 -9.674869 0.269250 1.575510 21.019328 31.210290 -3.199449 0.000000 0.000000 0.000002 -2.853311 3.302288 -72.160908 3.986879 5.547129 -71.391145 0.000003 0.000001 0.000000 -2.182411 6.183203 -74.413162 5.100827 5.802919 -82.620509 -0.000004 -0.000000 0.000000 -3.005551 7.949400 -88.198369 5.708881 5.849350 -88.605428 -0.000002 0.000005 -0.000003 0.210121 8.537051 -93.188943 6.053661 5.847598 -91.987526 -0.000000 0.000002 -0.000005 0.000000 0.000000 0.000004 0.654566 13.133319 8.324376 -11.309122 35.091374 48.626859 0.000297 101.896300 -0.000308 19.025801 12.710596 -36.950012 -6.752283 7.209117 -18.581258 21.103591 -37.132108 16.238824 -0.000000 -0.000002 0.000000 -3.540195 10.198984 38.856489 4.630442 -4.657090 89.670644 -0.000000 -0.000000 0.000004 -5.052161 -1.666590 58.052469 3.614508 -4.539189 77.048967 -0.000001 -0.000000 -0.000002 -3.874711 -2.923233 61.528373 4.479135 -4.653784 87.806638 -0.000003 -0.000001 0.000000 -1.858693 -4.592087 67.339060 2.935612 -4.327976 68.283799 0.000002 0.000004 -0.000001 -0.000000 -0.000000 -0.000004 0.000000 0.000003 0.000000 0.000000 0.000003 0.000000 0.000000 0.000003 0.000000 0.000000 0.000003 0.000000 0.000000 0.000003 -0.000000 0.000000 0.000001 0.000000 0.000000 0.000003 0.000000 0.000000 0.000003 -0.000000 0.000000 0.000001 0.000000 0.000001 0.000000 -0.000001 0.000001 0.000000 -0.000001 -0.000000 -0.000000 -0.000000 
7.739755 69.271584 -3.853527 23.947174 -79.864022 24.328743 -0.000000 -0.000000 -0.000000 -28.818399 -9.316795 23.509725 47.855731 -7.316610 10.055004 -24.976042 -6.099242 -21.786435 -0.000000 -0.000001 -0.000001 -0.000000 -0.000001 -0.000001 -0.000000 0.000001 0.000000 -18.114118 4.874454 -25.975957 46.891673 4.962186 -10.122860 -29.209837 2.375493 25.066335 0.000000 0.000001 0.000001 0.000000 0.000001 0.000001 -0.000001 -0.000001 0.000003 1.190792 4.193141 3.672986 1.555126 3.451227 1.016177 1.491296 3.510717 1.023371 -2.505827 8.602217 -1.279738 -2.965686 40.944665 -0.795751 -0.000000 -0.000001 0.000000 -0.000000 -0.000001 0.000000 -0.000000 -0.000001 0.000000 0.633904 7.205943 -6.991780 -4.027034 9.964017 -67.472058 -0.000061 -118.092987 -0.000065 -4.207153 -36.031717 21.229128 -9.674870 0.269249 1.575511 20.999864 31.142442 -3.192810 -0.000000 -0.000001 -0.000005 -2.859075 3.300601 -72.091923 3.980180 5.544887 -71.321976 -0.000003 0.000001 -0.000003 -2.187304 6.173443 -74.345093 5.093724 5.802026 -82.550274 0.000005 0.000001 0.000004 -3.012970 7.938804 -88.130484 5.701673 5.849158 -88.534565 -0.000004 0.000003 -0.000002 0.202175 8.530248 -93.120081 6.046524 5.847838 -91.917530 -0.000000 0.000001 0.000002 -0.000000 0.000000 0.000001 0.703598 12.600975 7.607050 -10.772634 34.147565 49.737680 0.000055 103.261088 -0.000072 18.710987 12.211375 -37.120654 -6.752284 7.209113 -18.581256 21.063323 -37.069059 16.214067 0.000000 0.000002 -0.000000 -3.543121 10.201683 38.788094 4.624847 -4.657065 89.601550 0.000000 -0.000000 0.000003 -5.052081 -1.654620 57.985403 3.608932 -4.537917 76.978295 -0.000002 0.000006 -0.000001 -3.875772 -2.912850 61.460795 4.473401 -4.653568 87.736375 -0.000000 -0.000001 0.000000 -1.861660 -4.584146 67.270745 2.930377 -4.325884 68.214151 0.000002 -0.000000 -0.000001 -0.000002 0.000000 -0.000003 -0.000000 0.000000 -0.000000 -0.000000 0.000000 -0.000000 -0.000000 0.000000 -0.000000 -0.000000 0.000000 -0.000000 -0.000000 0.000000 0.000000 -0.000000 0.000000 0.000000 -0.000000 0.000000 -0.000000 -0.000000 0.000000 0.000000 -0.000000 0.000000 0.000000 -0.000000 0.000001 0.000000 -0.000000 0.000001 0.000000 -0.000000 -0.000000 -0.000000 
7.350903 70.721397 -3.777055 16.186309 -77.438793 16.568156 0.000000 0.000001 -0.000000 -28.939911 -7.876864 23.185048 44.150951 -7.397453 10.179230 -20.842647 -10.782124 -22.127919 0.000000 0.000000 -0.000001 0.000000 0.000000 -0.000001 0.000002 -0.000000 0.000001 -16.330743 3.023510 -25.704300 44.780595 5.316171 -10.253506 -22.934966 2.309312 25.532982 0.000000 0.000001 0.000000 0.000000 0.000001 0.000000 -0.000002 0.000001 0.000001 0.985039 4.245654 3.843828 1.364926 3.425533 0.933034 1.299354 3.484988 0.928857 -2.094439 8.124936 -1.381036 -2.236920 38.340782 -0.194033 -0.000000 0.000000 0.000000 -0.000000 0.000000 0.000000 -0.000000 0.000000 0.000000 0.623446 7.184072 -6.717691 -3.255305 6.222747 -65.186287 0.000032 -117.506370 0.000018 -3.863545 -34.828542 20.605554 -9.674873 0.269247 1.575515 20.977005 31.061720 -3.185076 0.000000 -0.000001 -0.000002 -2.866256 3.298541 -72.009885 3.972239 5.542208 -71.239679 0.000003 -0.000002 -0.000002 -2.193128 6.161879 -74.264141 5.085289 5.800906 -82.466768 -0.000001 0.000000 -0.000002 -3.022121 7.926216 -88.049744 5.693092 5.848952 -88.450239 -0.000003 0.000003 -0.000005 0.192380 8.522187 -93.038091 6.038035 5.848113 -91.834243 -0.000002 0.000000 -0.000000 0.000001 0.000001 0.000000 0.732045 11.989991 7.098539 -9.801467 33.018924 50.192711 -0.000105 104.960063 0.000098 18.245361 11.392846 -37.011306 -6.752282 7.209118 -18.581260 21.015941 -36.993875 16.184920 -0.000000 -0.000004 -0.000001 -3.546619 10.204939 38.706754 4.618173 -4.657048 89.519335 0.000000 -0.000001 -0.000000 -5.052271 -1.640183 57.905709 3.602259 -4.536374 76.894201 0.000002 0.000000 -0.000004 -3.877027 -2.900495 61.380410 4.466659 -4.653277 87.652842 -0.000001 0.000000 0.000000 -1.865171 -4.574689 67.189486 2.924130 -4.323379 68.131315 0.000002 -0.000000 0.000002 0.000000 0.000000 -0.000003 0.000001 -0.000001 0.000000 0.000001 -0.000001 0.000000 0.000001 -0.000001 0.000000 0.000001 -0.000001 0.000000 0.000001 -0.000001 -0.000000 0.000001 0.000001 -0.000000 0.000001 -0.000001 0.000000 0.000001 -0.000001 -0.000000 0.000001 0.000001 -0.000000 -0.000000 0.000000 -0.000000 -0.000000 0.000000 -0.000000 0.000000 0.000001 -0.000000 
